# xmcd CD database file
#
# Track frame offsets:
#	183
#	18998
#	34958
#	56195
#	92373
#	115693
#	138305
#	155833
#	181488
#	195990
#	219240
#	239703
#	259068
#	270415
#
# Disc length: 3963 seconds
#
# Revision: 5
# Processed by: cddbd v1.5.2PL0 Copyright (c) Steve Scherf et al.
# Submitted via: CDex 1.40Beta9
#
DISCID=c10f790e
DTITLE=Lars Lilholt - Kong pukkelrygs land
DYEAR=1994
DGENRE=Folk-Rock
TTITLE0=Men aldrig som før
TTITLE1=Har denne vej et hjerte
TTITLE2=Alting er forbundet
TTITLE3=Hvidsten kro
TTITLE4=Da kærligheden kom til byen
TTITLE5=Førend vinteren kommer
TTITLE6=Onkel Christian
TTITLE7=Og Gudenåen går mod Kattegat
TTITLE8=To skud i Stockholm
TTITLE9=Gir du mig lov
TTITLE10=I et tarveligt teater
TTITLE11=Anno 5001
TTITLE12=Langå banegård
TTITLE13=Der er ingen vej tilbage
EXTD=\nRecord number: CMC Records 24052-2\n YEAR: 1994 ID3G: 81
EXTT0=
EXTT1=
EXTT2=
EXTT3=
EXTT4=
EXTT5=
EXTT6=
EXTT7=
EXTT8=
EXTT9=
EXTT10=
EXTT11=
EXTT12=
EXTT13=
PLAYORDER=
